<svg width="506" height="443" fill="none" xmlns="http://www.w3.org/2000/svg"><path d="M351.56 98.37c0 8.77 2.86 14.37 7.53 18.76 4.61 4.34 11 7.53 18.52 11.28l.82.4c15.68 7.82 35.15 17.91 49.4 45.22 6.89 13.17 14.81 18.07 22.6 17.85 7.97-.21 16.45-5.75 24.36-15.02 15.77-18.49 28.28-50.67 28.77-78.52.98-55.47-42.97-86.84-77.05-86.84-17.14 0-35.85 5.39-50.27 18.86-14.4 13.45-24.68 35.11-24.68 68z" stroke="#894DA5" stroke-width="3"/><path d="M442.1 158.05c-15 .44-8.68 19.93-30.3 31.97-21.64 12.04 9.08 31.27 32.14 31 23.05-.26 35.6-18.8 35.19-32.96-.41-14.17-9.87-30.8-37.03-30zM54.25 296.28c-18.26.54-10.56 24.26-36.89 38.92-26.33 14.65 11.06 38.05 39.13 37.73 28.06-.33 43.34-22.89 42.84-40.13-.5-17.24-12.01-37.48-45.08-36.52z" fill="#A962BA"/><path d="M91.46 261.24c-2.18-3.24-4.67-4.5-7.62-4.86-3.03-.36-6.53.21-10.8.92l-.4.06c-8.82 1.45-20.06 3.14-33.63-3.61-6.26-3.11-10.67-2.7-13.7-.55-3.15 2.23-5.28 6.64-6.2 12.48-1.87 11.64 1.23 27.7 8.26 38.63C41.29 325.93 67.94 325.7 82.38 316c7.27-4.89 13.76-12.29 16.34-21.54 2.56-9.2 1.31-20.45-7.26-33.22z" stroke="#894DA5" stroke-width="3"/><path d="M28.06 408.5c0 15.74 111.5 34 237.5 34s206-10 213.5-34S378.1 380 253.56 380s-225.5 12.76-225.5 28.5z" fill="#221B37" fill-opacity=".7"/><path opacity=".3" d="M91.41 347.42c8.2 8.66 15.97 14.24 22.1 18.65 72.1 51.83 157.42 36.72 175.55 33.03 26.78-5.45 78.53-15.98 115.95-60.07 56.62-66.7 47.8-171.8 3.89-241.16-8.03-12.7-50.46-83.12-136.7-94.41-52.18-6.84-113.02 6.95-157.07 43.93-92.48 77.63-85.9 234.45-23.72 300.03z" fill="url(#a)"/><path d="M413.18 2.06c.1-2.04-2.89-2.83-4.32-1.15-14.47 17.04-47.7 66.2-24 136.78 29.76 88.57 14.04 125.86-9.45 151.2 0 0 35.66-16.52 52.95-54.6C470.79 140.77 411.5 38.3 413.18 2.05z" fill="url(#b)"/><path d="M405.5 32.9a488.98 488.98 0 0 0 2.38 62.84 442.45 442.45 0 0 0 4.4 31.02 584.68 584.68 0 0 0 6.56 30.66c2.32 10.21 4.72 20.49 5.91 31.07 1.2 10.55.97 21.47-1.54 32.13a122.96 122.96 0 0 1-4.9 15.72c-1.99 5.17-4.38 10.24-7.18 15.15a124.33 124.33 0 0 1-21.3 27.1 2.6 2.6 0 0 1-3.3.23c-.92-.72-.97-1.97-.14-2.83 1.98-2.03 3.94-4.08 5.78-6.18.94-1.05 1.83-2.12 2.74-3.18.87-1.09 1.78-2.15 2.6-3.26a112.45 112.45 0 0 0 9.1-13.68 113.03 113.03 0 0 0 11.58-29.71 91.86 91.86 0 0 0 2.12-15.41c.26-5.16.06-10.32-.47-15.46-1.07-10.28-3.35-20.48-5.58-30.71a567.79 567.79 0 0 1-6.03-30.94 379.88 379.88 0 0 1-2.2-15.62c-.33-2.6-.6-5.23-.88-7.84-.25-2.62-.49-5.24-.7-7.87a442.5 442.5 0 0 1-1.3-31.57c0-10.55.32-21.1 1.1-31.66.02-.3.32-.54.67-.54.33.01.58.25.58.54z" fill="#fff"/><path d="M409.56 192.18c2.5 1.83 6.06.5 6.8-2.51 4.08-16.65 11.37-64.77-24.26-111.96-30.08-39.86-42.62-64.34-47.54-75.85a2.74 2.74 0 0 0-5.18.46c-6.68 28.43-20.57 123.49 70.18 189.86z" fill="url(#c)"/><path d="M413.06 189.85a1.21 1.21 0 0 0 1.18-1.46c-.15-.74-15.5-75.08-54.84-132.4a1.21 1.21 0 0 0-1.68-.3 1.21 1.21 0 0 0-.31 1.68c39.05 56.9 54.3 130.77 54.45 131.5.12.58.63.98 1.2.98z" fill="#fff"/><path d="M43.12 209.94c4.35 99.26 94.55 175.9 201.48 171.2 106.92-4.7 190.08-88.98 185.73-188.23C425.98 93.65 335.78 17 228.85 21.7 121.92 26.4 38.77 110.69 43.12 209.94z" fill="url(#d)"/><path d="M382.92 82.25c4.25 6.84 7.53 14.54 6.91 22.58-.7 9.3-5.4 18.02-5.65 27.35-.4 15.83 11.78 29.07 15.59 44.44 4.25 17.17-11.78 36.74-18.17 46.32-6.38 9.59-3.64-7.78-7.51-14.55-3.87-6.77-12.22 28.5-25.26 36.23-7 4.15-15.21 6.92-20.24 13.32-7.34 9.33-5.31 22.62-4.2 34.45 1.1 11.83-.56 26.25-11.2 31.51-6.26 3.1-14.22 2.05-19.87 6.16-9.92 7.22-5.18 22.97-9.11 34.6-4.28 12.67-12.76 12.83-25.88 15.52-13.12 2.68 1.65-26.2-4.5-36.3-3.23-5.3-8.16-9.52-10.7-15.2-3.54-7.85-2.55-18.35-9.4-23.56-5.14-3.9-12.29-2.84-18.74-2.9-6.45-.06-14.29-2.86-15.02-9.28-.65-5.7 5.04-10.24 10.61-11.56 5.57-1.32 11.5-.69 16.97-2.38 15.64-4.82 22.94-26.75 39.27-27.78 13.96-.87 25.65 14.83 39.37 12.09 7.65-1.53 12.89-8.32 18.56-13.68 7.3-6.88 16.35-12.04 22.14-20.24 5.79-8.19 6.77-21.28-1.47-27-6.12-4.24-14.8-2.52-20.85 1.83-6.05 4.35-10.16 10.8-14.6 16.79-1.38 1.85-2.93 3.76-5.12 4.45-5.9 1.85-10.21-6.47-8.8-12.5 1.42-6.04 5.67-11.34 5.87-17.54.35-10.91-11.38-17.84-21.67-21.44-10.3-3.6-22.43-7.88-25.45-18.37-1.07-3.71-.8-7.79-2.42-11.28-5.41-11.59-33.94-17.37-27.12-24.08 6.82-6.72 28.46-8.18 32.68-21.7 1.5-4.85 3.06-11.24 8.1-11.71 8.21-.77 12.9 9.42 19.79 11.17 3.26.83 3.58 6.39 3.45 13.23a8.99 8.99 0 1 0 17.95.34 13.94 13.94 0 0 0-1.04-5.56c-1.33-3.26-3.84-5.86-6.38-8.3-10.6-10.13-42.2-21.26-35.58-25.58 6.61-4.31 38.38-16.22 43.12-9.65 4.74 6.57-3.1 1.01-5.01 8.8-1.91 7.8 23.5 6.75 35.25 10.12 1.94.56 4.1 1.1 5.9.22 2.04-.98 2.9-3.35 4-5.32C353.38 65.74 373 72.6 373 72.6s6.1 3.53 9.9 9.65z" fill="url(#e)"/><path d="M294.14 34.3c2.85 5.34-5.63 5.25-6.47 11.24-7.64.83-10.78-11.23-18.33-12.64-4.26-.8-8.4 2.26-10.71 5.94-2.32 3.67-3.4 7.98-5.36 11.86a29.14 29.14 0 0 1-23.17 15.57c-2.1.17-4.43.04-6.01-1.36-4.6-4.06 1.98-11.7.27-17.6-1.96-6.75-11.67-5.73-18.23-8.2-1.8-.68-15.73-4.4-15.95-6.33-.4-3.41 6.06-5.58 13.28-7.44 12.24-3.16 33.78-3.03 44.3-2.07 14.01 1.27 37.35.24 46.38 11.04z" fill="url(#f)"/><path d="M60.58 263.48a177.27 177.27 0 0 1 .78-60.17c.98-5.29 3.28-11.59 8.6-12.35 6.14-.88 13.66 6.2 17.51 1.31 1.7-2.15 1.02-5.29.06-7.86a52.12 52.12 0 0 0-11.58-18.18c-3.15-3.2-6.75-6.05-9.17-9.83-5.18-8.1-1.55-19.94 5.8-26.14 7.33-6.2 16.8 4.92 24.51.5 7.71-4.41 7.95-15.13 9.4-23.91 1.08-6.5 5.86-24.13 11.15-15.55 5.28 8.58-7.05 42.75-20.93 59.13-1.68 1.98-3.53 4.2-3.39 6.78.34 6.18 9.33 5.9 15.38 7.17 7.48 1.57 18.95-2.45 12.62 10.62-3.34 6.9-19.29 16.32-15 20.94 4.28 4.6 17.46 17.97 23.64 28.77 6.19 10.8 9.18 24.26 4.52 35.8-4.66 11.55-18.68 19.53-30.12 14.66-5.36-2.28-11.2-7-16.17-4-4.51 2.74-3.85 9.3-3.62 14.57.22 5.27-2.82 12.27-7.94 11.04-1.68-.41-3-1.7-4.14-3-7.21-8.3-10.18-19.44-11.91-30.3z" fill="url(#g)"/><path opacity=".18" d="M247.21 332.38c-83.98 0-152.07-64.44-152.07-143.93 0-79.5 68.09-143.94 152.07-143.94 83.99 0 152.07 64.44 152.07 143.94 0 79.49-68.08 143.93-152.07 143.93z" fill="#fff"/><g opacity=".68" fill="#fff"><path opacity=".68" d="M182.68 204.51c.04 31.72 2.2 63.5 7.75 94.76 1.4 7.81 3.04 15.59 4.98 23.28 1.95 7.7 4.2 15.33 6.96 22.78 1.38 3.73 2.9 7.41 4.6 11.01 1.7 3.6 3.59 7.12 5.79 10.45 2.2 3.32 4.7 6.5 7.78 9.12a22.09 22.09 0 0 0 5.08 3.28 14.89 14.89 0 0 0 11.9.3c1.9-.76 3.64-1.85 5.21-3.1a40.55 40.55 0 0 0 7.95-8.98 82.64 82.64 0 0 0 5.88-10.4c1.73-3.59 3.26-7.26 4.66-10.98 2.8-7.44 5.07-15.06 7.03-22.75a337.5 337.5 0 0 0 5.03-23.27 488.79 488.79 0 0 0 6.05-47.2 618.47 618.47 0 0 0 1.99-47.55c.03-7.93-.17-15.87-.44-23.8a663.55 663.55 0 0 0-1.29-23.75 524.8 524.8 0 0 0-5.46-47.26c-1.3-7.83-2.81-15.62-4.63-23.35a224.6 224.6 0 0 0-6.58-22.87 134.6 134.6 0 0 0-4.43-11.06 80.87 80.87 0 0 0-5.66-10.5 39.01 39.01 0 0 0-7.79-9.04 19.85 19.85 0 0 0-5.14-3.1 14.47 14.47 0 0 0-5.9-1.05c-2.02.06-4.01.57-5.85 1.38a22.85 22.85 0 0 0-5.08 3.18 43.49 43.49 0 0 0-7.95 8.9 85.09 85.09 0 0 0-6.05 10.27c-1.79 3.54-3.39 7.18-4.86 10.87a217.34 217.34 0 0 0-7.47 22.6 326.2 326.2 0 0 0-5.43 23.17c-6.08 31.16-8.55 62.94-8.63 94.66zm1.83 0c-.02-15.81.59-31.63 1.9-47.4a456.51 456.51 0 0 1 6.22-47c1.47-7.77 3.18-15.5 5.2-23.13 2.04-7.64 4.4-15.2 7.25-22.56 1.44-3.67 3-7.3 4.74-10.84a84.18 84.18 0 0 1 5.9-10.23 42.86 42.86 0 0 1 7.76-8.81 22.23 22.23 0 0 1 4.91-3.15 13.8 13.8 0 0 1 11.29-.3c1.8.73 3.45 1.8 4.96 3.04a38.3 38.3 0 0 1 7.56 8.95 79.85 79.85 0 0 1 5.52 10.44c1.61 3.6 3.02 7.29 4.3 11.02 2.56 7.47 4.6 15.12 6.36 22.82 1.75 7.71 3.19 15.5 4.41 23.3a522.74 522.74 0 0 1 5.05 47.17 718.71 718.71 0 0 1 1.37 47.43c.03 15.81-.51 31.63-1.7 47.4a486.68 486.68 0 0 1-5.74 47.08 337.64 337.64 0 0 1-4.87 23.2 218.15 218.15 0 0 1-6.85 22.65 133.6 133.6 0 0 1-4.55 10.91 81.65 81.65 0 0 1-5.74 10.3 39.5 39.5 0 0 1-7.68 8.77 19.8 19.8 0 0 1-4.92 3 13.63 13.63 0 0 1-5.59 1.05 14.2 14.2 0 0 1-5.53-1.35 21.12 21.12 0 0 1-4.82-3.16 41.64 41.64 0 0 1-7.53-8.93 84.32 84.32 0 0 1-5.64-10.35 137.48 137.48 0 0 1-4.49-10.94 223.44 223.44 0 0 1-6.77-22.68 342.21 342.21 0 0 1-4.81-23.21c-2.7-15.58-4.51-31.3-5.7-47.08a619.28 619.28 0 0 1-1.77-47.4z"/><path opacity=".68" d="M102.83 204.51c.04 10.2.68 20.42 2.04 30.53a223.66 223.66 0 0 0 6.12 29.98c5.51 19.64 13.84 38.55 25.18 55.52a159.2 159.2 0 0 0 19.28 23.7 135.34 135.34 0 0 0 23.76 19.16 114.48 114.48 0 0 0 27.69 12.75 104.68 104.68 0 0 0 30.14 4.46c10.19 0 20.37-1.51 30.14-4.44a114.4 114.4 0 0 0 27.7-12.74 135.36 135.36 0 0 0 23.78-19.15 159.25 159.25 0 0 0 19.32-23.69c11.35-16.97 19.7-35.88 25.23-55.53a221.85 221.85 0 0 0 6.15-30 235.9 235.9 0 0 0 2.03-30.55 235.72 235.72 0 0 0-2.04-30.54 221.89 221.89 0 0 0-6.17-29.99c-5.54-19.64-13.9-38.55-25.26-55.5A159.34 159.34 0 0 0 318.6 64.8a135.07 135.07 0 0 0-23.77-19.12 114.95 114.95 0 0 0-27.7-12.7 104.63 104.63 0 0 0-30.1-4.45c-10.18 0-20.35 1.53-30.1 4.47a114.87 114.87 0 0 0-27.67 12.71 134.88 134.88 0 0 0-23.74 19.14 159.17 159.17 0 0 0-19.29 23.68c-11.34 16.95-19.69 35.85-25.21 55.49a223.78 223.78 0 0 0-6.13 29.97 235.5 235.5 0 0 0-2.06 30.52zm2.1 0c.01-10.11.62-20.23 1.94-30.26a221.35 221.35 0 0 1 5.97-29.73c5.35-19.5 13.43-38.3 24.55-55.22a157.88 157.88 0 0 1 18.94-23.64 132.43 132.43 0 0 1 23.42-19.17 113.11 113.11 0 0 1 27.41-12.73 103.87 103.87 0 0 1 29.87-4.48 103.78 103.78 0 0 1 29.87 4.5 112.98 112.98 0 0 1 27.4 12.75 132.41 132.41 0 0 1 23.4 19.18 157.81 157.81 0 0 1 18.9 23.64c11.1 16.91 19.17 35.72 24.5 55.2a228.19 228.19 0 0 1 7.89 59.96 228.1 228.1 0 0 1-7.92 59.95c-5.34 19.48-13.42 38.28-24.53 55.18a157.63 157.63 0 0 1-18.91 23.62 132.05 132.05 0 0 1-23.39 19.15 113.33 113.33 0 0 1-27.38 12.71 103.67 103.67 0 0 1-29.83 4.51 103.72 103.72 0 0 1-29.83-4.48 113.37 113.37 0 0 1-27.4-12.7 132.13 132.13 0 0 1-23.41-19.14 157.86 157.86 0 0 1-18.94-23.62c-11.13-16.9-19.22-35.7-24.58-55.2a221.21 221.21 0 0 1-5.99-29.72 233.76 233.76 0 0 1-1.94-30.26z"/><path opacity=".68" d="m393.98 134.82-40.4-.26-40.38-.14-80.78-.12-80.78.13-40.4.16-40.39.27a.1.1 0 0 0-.09.1c0 .05.04.09.1.09l40.38.27 40.4.16 80.78.13 80.78-.12 40.39-.14 40.4-.26a.14.14 0 0 0 .13-.14.14.14 0 0 0-.14-.13zm-46.86-67.79-28.67-.25-28.68-.15c-9.56-.06-19.12-.05-28.67-.07l-28.68-.04-57.35.12-28.68.16-28.67.28a.1.1 0 0 0 0 .18l28.67.28 28.68.16 57.35.13 28.68-.05c9.55-.01 19.11 0 28.67-.07l28.68-.14 28.67-.26a.14.14 0 0 0 .14-.14.14.14 0 0 0-.14-.14zm60.9 135.57-43.9-.25-43.9-.15-87.8-.12-87.8.13-43.9.16-43.9.28a.1.1 0 0 0-.1.09c0 .05.05.1.1.1l43.9.27 43.9.16 87.8.13 87.8-.12 43.9-.15 43.9-.25a.14.14 0 0 0 .14-.14.14.14 0 0 0-.14-.14zm-14.04 67.78-40.4-.25-40.38-.15-80.78-.11-80.78.12-40.4.16-40.39.28a.1.1 0 0 0-.09.1c0 .04.04.08.1.08l40.38.28 40.4.16 80.78.13 80.78-.12 40.39-.14 40.4-.26a.14.14 0 0 0 .13-.14.14.14 0 0 0-.14-.14zM111.93 338.8h229.41a.49.49 0 0 0 0-.97h-229.4a.49.49 0 0 0 0 .97z"/></g><path d="M232.2 171.85c27.5-4.95 53.9-16.1 74.46-31.7l-1.76-1.04c-24.57 18.63-57.65 30.79-90.77 33.38-33.12 2.58-66.12-4.44-90.51-19.26-10.7-6.5-19.07-13.99-24.88-22.25l-2.3.92c5.92 8.44 14.45 16.07 25.36 22.7 24.84 15.09 58.47 22.24 92.25 19.6a182.35 182.35 0 0 0 18.15-2.35zM98.62 185.33c4.98-8.37 7.68-16.3 8.05-23.74.95-18.7-13.47-27.54-13.62-27.63l-.85 1.45c.14.08 14.06 8.63 13.14 26.57-.62 12.16-7.8 25.84-21.36 40.66l.74 1c5.75-6.3 10.4-12.4 13.9-18.3zm215.31-48.13c1.04.34 2 .34 2.79-.05l-.82-1.03c-1.57.77-4.02-1.46-4.5-1.92-10.54-10.09-18.1-21.3-21.85-32.4-4.15-12.29-3.65-24.52 1.41-34.46l-1.3-.57c-5.17 10.16-5.69 22.66-1.45 35.2 3.81 11.3 11.49 22.69 22.2 32.93a9.8 9.8 0 0 0 3.52 2.3zM120.66 266.09l1.57-.15c-.25-5.86-2.55-11.27-5-16.25a157.58 157.58 0 0 0-23.75-35.39c-3.56-3.99-7.54-8.02-12.5-10.5l-.7 1.53c4.73 2.37 8.58 6.28 12.04 10.16a156.06 156.06 0 0 1 23.52 35.03c2.36 4.82 4.59 10.03 4.82 15.57z" fill="#fff"/><path d="M311.71 145.3a11.83 11.83 0 0 1 0-23.67c6.53 0 11.81 5.3 11.81 11.84s-5.28 11.83-11.8 11.83z" fill="url(#h)"/><path d="M96.44 147.8c-6.52 0-11.8-5.3-11.8-11.83a11.82 11.82 0 1 1 11.8 11.83z" fill="url(#i)"/><path d="M295.8 78.9a11.82 11.82 0 0 1 0-23.67c6.52 0 11.8 5.3 11.8 11.84s-5.28 11.83-11.8 11.83z" fill="url(#j)"/><path d="M118.94 278.77a11.82 11.82 0 0 1 0-23.67c6.52 0 11.8 5.3 11.8 11.84s-5.28 11.83-11.8 11.83z" fill="url(#k)"/><path d="M80.34 214.56a11.83 11.83 0 0 1 0-23.67c6.52 0 11.81 5.3 11.81 11.84s-5.29 11.83-11.8 11.83z" fill="url(#l)"/><path d="M181.7 216.91c4.6-3.17 13.03 5.66 13.03 5.66s22.1 1.21 28.86-1.23c6.76-2.44 5.72-29.08 5.72-29.08s21.43-10.7 19.14 23.73c-1.98 29.87-53.07 12.44-53.07 12.44s-12.83 1.96-16.24-.33c-3.42-2.29-2.02-8.02 2.57-11.19z" fill="url(#m)"/><path d="M193.38 221.42s-2.19-5.73-6.99-6.57c-4.8-.83-4.65.07-3.84 1.3.81 1.21 9.24 8.15 10.83 5.27z" fill="url(#n)"/><path d="M223.6 221.34c6.75-2.44 1.37-30.67 1.37-30.67s24.9-9.15 23.48 25.32c-.65 15.9-17.95 18.88-31.43 17.5-.67-4.5-.47-6.53-2-10.85 1-.18 7.87-1.05 8.57-1.3z" fill="url(#o)"/><path d="m208.79 208.39-2.6 29.61a3.54 3.54 0 0 1-3.84 3.21l-19.51-1.82a3.52 3.52 0 0 1-3.1-4.27l6.74-30.46a3.54 3.54 0 0 1 4.05-2.72l15.36 2.68a3.52 3.52 0 0 1 2.9 3.77z" fill="url(#p)"/><path opacity=".26" d="M190.81 219.24a4.96 4.96 0 0 1 1.51-6.85 4.95 4.95 0 0 1 6.84 1.52 4.97 4.97 0 0 1-1.51 6.85 4.95 4.95 0 0 1-6.84-1.52zm10.3 16.55.1-.96a.12.12 0 0 0-.1-.13l-15.43-1.59a.12.12 0 0 0-.13.1l-.1.96a.12.12 0 0 0 .1.13l15.43 1.6a.12.12 0 0 0 .13-.11zm.3-2.86.1-.96a.12.12 0 0 0-.11-.13l-15.42-1.59a.12.12 0 0 0-.13.1l-.1.96a.12.12 0 0 0 .1.13l15.43 1.59a.12.12 0 0 0 .13-.1z" fill="#fff"/><path d="M182.38 217.09s5.38-.93 5.67 2.5c.3 3.43 1.16 8.24-1.73 8.77-2.9.53-8.24 1.67-9.15-2.73-.92-4.4 4.53-10.08 5.2-8.54z" fill="url(#q)"/><path d="M243.58 165.03c1.53 1.2 19.67 2.65 33.1 5.55a19.44 19.44 0 0 1 15.2 21.2l-1.6 14.2a2.62 2.62 0 0 1-3.7 2.1l-38.07-17.4-4.93-25.65z" fill="url(#r)"/><path d="M246.02 252.46h38.54a2.23 2.23 0 0 0 2.23-2.23v-75.21a3.3 3.3 0 0 0-3.3-3.3h-37.47v80.74z" fill="url(#s)"/><path d="m267.38 307.3 4.32 7.09s34.44 32.5 47.44 46.19a14.8 14.8 0 0 1 3.86 7.77l2.53 15.24 7.53-22.68-1.66-1.47-5.26-1.97-31.33-42.75a16.17 16.17 0 0 0-7.27-5.55l-8.45-3.23-11.7 1.36z" fill="url(#t)"/><path d="M322.16 348.96c-.72 4.92-4.04 7.22-8.07 8.81l-44.06-44.38-23.11-55.07-5.29-32.65 9.5-2.38c21.56 4.19 24.38 46 28.96 83.03 13.8-.25 27.52 21.75 42.07 42.64z" fill="url(#u)"/><path d="M326.74 357.12s10.68 1.72 8.07 9.72c-2.6 8-6.59 22.77-11.8 19.81-5.2-2.95.76-19.33-1.86-23.4 4.97-3.9 5.6-6.13 5.6-6.13z" fill="url(#v)"/><path d="m240.2 304.22-1.4 8.18s4.66 47.18 5.48 66.05a14.8 14.8 0 0 1-2.18 8.4L234 400.02l20.55-12.15.4-2.5-3.35-4.64 4.4-52.86c.26-3.1-.38-6.22-1.84-8.97l-4.25-8-9.72-6.67z" fill="url(#w)"/><path d="M226.73 225.67c-4.75 8.86.46 33.96 11.83 85.38l5.26 59.32c3.34 2.74 6.81 3.7 10.44 2.77 3.41-29.6 4.64-50.93-3.35-63.18l-1.9-49.21-7.24-33.78-15.04-1.3z" fill="url(#x)"/><path d="M253.1 382.77s9.05 9.35 2.17 11.47c-6.88 2.12-24.7 9.22-25.78 5.77-1.36-4.3 14.34-17.24 14.34-17.24 2.7 1.4 7.43 1.62 9.26 0z" fill="url(#y)"/><path d="M251.13 223.3c-7.03-29.84 7.8-52.12 7.8-52.12-8.46-8.13-21.59-8.67-27.56-8.44a9.51 9.51 0 0 0-5.63 2.14c-4.75 3.86-14.5 12.97-12.74 21.5 1.36 6.56 13.73 39.3 13.73 39.3s11.43 5.41 24.4-2.39z" fill="url(#z)"/><path d="m237.86 141.17 5.72 23.86c.54 2.26-1.5 2.97-3.8 3.3-5.42.8-9.51-1.25-10.18-5.07-.06-.34-.25-.63-.3-.97l-2.45-17.82a3.2 3.2 0 0 1 1.87-3.37l4.74-2.1a3.2 3.2 0 0 1 4.4 2.17z" fill="url(#A)"/><path d="M232.53 121.8s-8.05 2.2-14.7 12.51c-6.67 10.32-3.49 15.93 1.27 17.29 4.76 1.35 12.04 2.23 20.67-3.85 8.64-6.08 3.16-28.42-7.25-25.95z" fill="url(#B)"/><path d="M235.4 141.17s7.91-15.35-6.32-17.47l-3.68 1.9s1.3-7.42 10.46-10.52c9.16-3.11 16.15.2 18.24 12.29s-1.05 19.28-7.88 24.01-8.49-1.9-8.49-1.9 4.01-4.75 3.04-7.7c-.98-2.96-4.54-.03-4.54-.03l-.83-.58z" fill="url(#C)"/><path d="M252.21 139.56s27.66-8.52 32.2 20.38c4.56 28.9 7.7 38.16 14.56 33.18 0 0-1.13 10.8-14.3 5.97-34.17-12.53-13.37-52.63-32.46-59.53z" fill="url(#D)"/><path d="M285.75 236.06c7.98-34.11-26.82-64.88-26.82-64.88-8.3 1.9-10.42 7.38-8.19 15.38 16.38 15.39 22.52 32.82 23.78 47.49 2.22-.65 7.56-1.67 11.23 2z" fill="url(#E)"/><path d="M274.51 234.05a40.83 40.83 0 0 1 1.16 13.53c-.08.82-.5 1.49-1.36 1.53-.4.02-.81-.04-1.2.06-.39.11-.76.46-.7.86.03.2.15.36.2.54.08.37-.14.75-.45.97-.3.22-.67.33-1.03.45-1.4.5-2.88 1.42-4.2 2.1-.4.21-.46.74-.4 1.17.57 3.85 5.95 3.48 8.52 2.15 1.58-.81 3-2.12 3.96-3.6 3.95-6.12 6-12.1 6.74-17.75-3.67-3.68-9.02-2.66-11.24-2.01z" fill="url(#F)"/><path d="M255.53 168.04c-12.88 19.8 2.5 58.53 6.52 60.06-17.66-3.56-24.24-35.87-14.4-63.36 2.89-.21 5.85.75 7.88 3.3z" fill="url(#G)"/><path d="M318.8 267.2c-1.49-3.02-.23-6.62 2.34-9.3a9.43 9.43 0 0 0 2.58-6.96c-.55-11.82 4.96-48.12 10.5-52.56 9.63-7.72-2.57 56.93-5.29 58.81-3.03.84-.64 13.7.83 15.8 2.43 3.5-7.44 1.29-10.95-5.79z" fill="url(#H)"/><path d="M334.55 240.6c-3.03-3.56-6.24-6.17-9.84-6.75a1.26 1.26 0 0 1-1.05-1.34l3.88-51.2 17.24 14.04-10.23 45.24z" fill="url(#I)"/><path d="m315.2 256.25 25.88 12.55a3.43 3.43 0 0 1 1.58 4.6l-8.37 17.07a3.4 3.4 0 0 1-4.92 1.35l-25.22-16.6a3.44 3.44 0 0 1-1.06-4.62l7.7-13.02a3.4 3.4 0 0 1 4.41-1.33z" fill="url(#J)"/><path opacity=".26" d="M314.08 274.52a4.81 4.81 0 0 1 .87-6.74 4.79 4.79 0 0 1 6.73.88 4.81 4.81 0 0 1-.87 6.73 4.79 4.79 0 0 1-6.73-.87zm23.25-1.87-.83-.41a.12.12 0 0 0-.15.05l-6.75 13.44a.12.12 0 0 0 .05.16l.83.41a.12.12 0 0 0 .15-.05l6.75-13.44a.12.12 0 0 0-.05-.16zm-2.49-1.25-.82-.42a.12.12 0 0 0-.16.05l-6.74 13.45a.12.12 0 0 0 .05.15l.82.42c.06.03.13 0 .16-.05l6.74-13.45a.12.12 0 0 0-.05-.15z" fill="#fff"/><path d="M327.82 255.94s4.62 4.33 3.54 9.27c-1.07 4.93-1.88 4.43-2.73 3.18-.85-1.25-4.19-12.05-.81-12.45z" fill="url(#K)"/><path d="M362.64 257.96h34c4.1 0 7.4-3.32 7.4-7.42 7.04-24.71 3.8-53.38-4.49-85.02a9.34 9.34 0 0 0-9.02-6.97h-27.89v99.41z" fill="url(#L)"/><path d="M390.02 156.37a12.04 12.04 0 0 1 11.64 8.99l5.53 21.05c1.2 4.6-2.39 9.13-8.09 10.2l-10.47 1.96-33.61-46.92 35 4.72z" fill="url(#M)"/><path d="m336.9 246.54 32.22-1.16s7.33 10.6 7.5 13.13c.1 1.33.16 2.6.2 3.83l5.88 53.42a12.02 12.02 0 0 0 1.66 4.9l22.04 37.79c.8 1.23 2.65 3.37 1.74 4.52-1.05 1.32-.88 3.7-3.3 4.7-.9.37-5.16-3.91-5.81-4.65l-32.92-37.64a10.32 10.32 0 0 1-2.25-4.32l-9.42-35.1c-5.96 17.57-13.04 75.75-14.31 87.44-.14 1.22-.72 14.2-1.94 14.3-2.3.2-4.41-.5-6.32-.79-1.3-.19-.86-10.02-.95-11.33-4.62-71.91 5.98-129.04 5.98-129.04z" fill="url(#N)"/><path d="M408.22 361.43s10.68 1.71 8.08 9.7c-2.6 8-6.6 22.78-11.8 19.83-5.2-2.96 2.81-20.25-1.33-24.1 4.97-3.9 5.05-5.43 5.05-5.43z" fill="url(#O)"/><path d="M338.57 386.79s6.94 10.08 0 11.99c-6.94 1.91-20.82 6.9-24.64 3.1-3.81-3.8 17.63-15.76 17.63-15.76 2.66 1.48 5.13 2.23 7 .67z" fill="url(#P)"/><path d="M322.01 184.98a21.74 21.74 0 0 1 17.43-27.13c14.13-2.37 28.54-.07 35.62.39a14.55 14.55 0 0 1 9.47 4.38c9.98 10.24 32.22 38.58 9.95 69.85-3.18-1.52-7.73-4-10.89-7 2.2-7.69 1.84-17.31-4.45-28.76a27.49 27.49 0 0 1-.55 2.81c-6.2 24.87-5.39 45.21-5.09 49.9.04.63-.28 1.23-.84 1.5-9.87 4.7-26.2 3.72-32.82 3.14-1.2-.11-3.78-.3-4.14-1.45-4.85-15.54-8.32-47.88-13.69-67.63z" fill="url(#Q)"/><path d="M378.78 194.27c2.79-9.96 1.4-21.23 1-23.87a.56.56 0 0 0-.65-.47.57.57 0 0 0-.46.64c.37 2.55 1.75 13.63-.99 23.39a.57.57 0 0 0 .38.7.57.57 0 0 0 .72-.4z" fill="url(#R)"/><path d="M383.59 225.47c3.16 3 7.7 5.48 10.89 7-4.25 5.98-10.13 12.06-18.03 18.15l-.96 2.54a9.55 9.55 0 0 1-3.66 4.61l-3.2 2.12a4.6 4.6 0 0 1-5.6-.4l-1.38-1.22a3.2 3.2 0 0 1-.4-4.37l3.95-5.04c.68-.88 5.58-1.64 6.5-2.27 3.45-2.36 8.56-9.53 11.89-21.12z" fill="url(#S)"/><path d="m355.41 134.54 3.94 23.9a1.29 1.29 0 0 1-.91 1.44c-2.98.86-10.8 3.15-17.69-1.12l2.08-19.49 12.58-4.73z" fill="url(#T)"/><path d="M343 116.36c-.28.26-11.83 22.98-11.83 22.98l13.09 6.32 14.13-19.9s-10.7-13.83-15.4-9.4z" fill="url(#U)"/><path d="M352.6 126.31a2.1 2.1 0 0 1-.16 1.84l-6.52 10.9c-.1.16-.22.32-.36.45-.78.72-3.43 2.83-5.49-.04-1.75-2.45-3.4-4.67-5.15-5.59a2.08 2.08 0 0 0-2.82.93 78.23 78.23 0 0 0-4.47 10.62 2.08 2.08 0 0 0 1.21 2.55c2.65 1.07 7.89 3.02 12.53 3.66a2.09 2.09 0 0 0 1.98-.84c2-2.74 7.63-10.41 9.55-12.33 2.35-2.35 5.62-.24 8.34-.97.13-.04.27-.08.36-.18.1-.11.12-.27.13-.42a8.24 8.24 0 0 0-.15-2.55c-.06-.27-.14-.55-.15-.83-.01-.57.25-1.1.48-1.63 1.03-2.35 1.5-4.93 2.33-7.36.12-.33.23-.68.2-1.03a2.27 2.27 0 0 0-.18-.67 8.38 8.38 0 0 0-3.57-4.05c-1.36-.79-4.06-.73-4.72-2.35-.22-.54-.88-.83-1.27-1.24-.63-.65-1.16-1.43-1.73-2.13-.67-.82-1.43-1.7-2.47-1.88a4.44 4.44 0 0 0-1.9.23 9.1 9.1 0 0 0-3.03 1.24c-1.15.84-1.84 2.15-2.44 3.44-.29.63-.58 1.31-.47 2 .27 1.83 3.23 2.81 4.78 3 2.92.38 4.52 3.57 5.16 5.23z" fill="url(#V)"/><path d="M350.06 141.85s2.9-6.74 6.12-6.47c3.21.27 5.74 3.47 1.76 7.08-4.96 4.48-7.88-.61-7.88-.61z" fill="url(#W)"/><path d="M380.5 159.69c-12.88 19.8-2.83 58.11 1.19 59.65-17.66-3.56-18.91-35.46-9.07-62.94a8.97 8.97 0 0 1 7.88 3.29z" fill="url(#X)"/><path d="M358.1 113.1c.83.66 1.95.63 2.5-.07.56-.7.33-1.8-.5-2.47-.83-.66-1.96-.63-2.51.07-.56.7-.33 1.8.5 2.46z" fill="url(#Y)"/><path d="M362.54 133.7c13.09-20.19-16.27-34.99-24.6-14.68 8.15 3.74 16.37 8.77 23.27 14.87a.88.88 0 0 0 1.33-.18z" fill="url(#Z)"/><path d="M355.23 129.03c-9.7-2.69-21.59-4.16-25.58-7-3.51-2.08-4.42-6.17-1.59-5.42l10.54 2.58c6.28 1.84 11.73 5.3 16.63 9.84z" fill="url(#aa)"/><path d="m142.57 51.17 13.62-7.97c.28-.17.6-.22.92-.15l17.34 4.03a1.27 1.27 0 0 1 .54 2.21l-10.68 9.14-21.74-7.26z" fill="url(#ab)"/><path d="M258.27 69.63S96.55 36.3 90.17 38.17c-6.4 1.87-17.9 8.32-21.24 8.24-3.34-.07-15.08 1.69-12.25 10.12C59.5 64.96 193.57 94 209.38 88.99c15.82-5.01 55.8-14.19 55.8-14.19s3.8-5.6-6.91-5.17z" fill="url(#ac)"/><path d="m211.44 60.58 23.7-12.42a8.98 8.98 0 0 0 3.58-3.41l9.88-16.87a3.52 3.52 0 0 1 3.86-1.65c4.81 1.15 14.8 3.66 14.83 4.8.02 1.51-5.84 39.2-5.84 39.2l-50-9.65z" fill="url(#ad)"/><path d="m256.61 75.01 1.75 8.02a4.41 4.41 0 0 1-.93 3.78 4.45 4.45 0 0 1-3.58 1.6l-8.26-.18a4.45 4.45 0 0 1-3.37-1.57L227.9 69.47l28.71 5.54z" fill="url(#ae)"/><path d="M170.85 99.51s-5.14 6.04-13.29 5.86c-8.14-.17-18.11-2.65-19.93-5.58-1.82-2.93-5.36-24.34 11.1-20.91 16.48 3.43 35.56 13.51 22.12 20.63z" fill="url(#af)"/><path d="M180.6 77.69 142.16 70l31.46 42.47a2.65 2.65 0 0 0 1.84 1.05l23.08 2.47a2.65 2.65 0 0 0 2.5-1.2 2.66 2.66 0 0 0 .05-2.8l-20.5-34.3z" fill="url(#ag)"/><path d="M139.74 100.43a.83.83 0 0 1-.29 0c-.51-.08-1.02-.63-1.5-1.63-1.55-3.22-2.42-10.05.49-15.17a5.02 5.02 0 0 1 4.15-2.54c1.42-.07 3.23.4 3.75 3 .8 4.05-3.28 13.28-5.53 15.63-.4.41-.75.65-1.07.7zm2.3-18.57a4.38 4.38 0 0 0-3 2.12c-2.74 4.84-1.9 11.53-.46 14.52.42.86.79 1.2.98 1.23.02.01.24.02.74-.5 2.34-2.44 6.06-11.42 5.35-15.01-.35-1.71-1.33-2.5-3.03-2.43a4.57 4.57 0 0 0-.59.07z" fill="url(#ah)"/><path d="m266.15 39.98-4.01-.08-4.32 25.56 4.2 1.07 4.13-26.55z" fill="url(#ai)"/><path d="M199.58 69.39a2.4 2.4 0 0 0-2.34-2.45h-.15a2.39 2.39 0 0 0-2.44 2.34l-.03 1.56a2.4 2.4 0 0 0 2.34 2.45h.15a2.39 2.39 0 0 0 2.44-2.34l.03-1.56z" fill="url(#aj)"/><path d="M190.44 68.48a2.4 2.4 0 0 0-2.33-2.44h-.15a2.39 2.39 0 0 0-2.44 2.33l-.04 1.57a2.39 2.39 0 0 0 2.34 2.44h.15a2.39 2.39 0 0 0 2.44-2.34l.04-1.56z" fill="url(#ak)"/><path d="M181.34 66.17a2.39 2.39 0 0 0-2.34-2.45h-.15a2.39 2.39 0 0 0-2.44 2.34l-.03 1.56a2.39 2.39 0 0 0 2.34 2.45h.15a2.39 2.39 0 0 0 2.44-2.34l.03-1.56z" fill="url(#al)"/><path d="M172.92 64.57a2.39 2.39 0 0 0-2.33-2.44h-.16a2.39 2.39 0 0 0-2.44 2.33l-.03 1.57a2.39 2.39 0 0 0 2.34 2.44h.15a2.39 2.39 0 0 0 2.44-2.34l.03-1.56z" fill="url(#am)"/><path d="M163.1 62.95a2.4 2.4 0 0 0-2.34-2.45h-.15a2.39 2.39 0 0 0-2.44 2.34l-.03 1.56a2.4 2.4 0 0 0 2.34 2.45h.15a2.39 2.39 0 0 0 2.44-2.34l.03-1.57z" fill="url(#an)"/><path d="M153.98 61.34a2.39 2.39 0 0 0-2.34-2.45h-.15a2.39 2.39 0 0 0-2.44 2.34l-.03 1.56a2.4 2.4 0 0 0 2.33 2.45h.15a2.39 2.39 0 0 0 2.44-2.34l.04-1.57z" fill="url(#ao)"/><path d="M144.87 59.02a2.4 2.4 0 0 0-2.33-2.44h-.15a2.39 2.39 0 0 0-2.44 2.33l-.04 1.57a2.39 2.39 0 0 0 2.34 2.44h.15a2.39 2.39 0 0 0 2.44-2.34l.03-1.56z" fill="url(#ap)"/><path d="M136.44 58.13a2.4 2.4 0 0 0-2.34-2.44h-.15a2.39 2.39 0 0 0-2.44 2.33l-.03 1.57a2.39 2.39 0 0 0 2.34 2.44h.15a2.39 2.39 0 0 0 2.44-2.34l.03-1.56z" fill="url(#aq)"/><path d="M127.32 56.52a2.39 2.39 0 0 0-2.33-2.44h-.16a2.4 2.4 0 0 0-2.44 2.33l-.03 1.57a2.39 2.39 0 0 0 2.34 2.44h.15a2.39 2.39 0 0 0 2.44-2.34l.03-1.56z" fill="url(#ar)"/><path d="M118.22 54.2a2.39 2.39 0 0 0-2.34-2.44h-.15a2.39 2.39 0 0 0-2.44 2.34l-.04 1.56a2.39 2.39 0 0 0 2.34 2.44h.15a2.39 2.39 0 0 0 2.44-2.33l.04-1.57z" fill="url(#as)"/><path d="M109.78 53.31a2.39 2.39 0 0 0-2.33-2.44h-.15a2.39 2.39 0 0 0-2.44 2.34l-.04 1.56a2.4 2.4 0 0 0 2.34 2.44h.15a2.39 2.39 0 0 0 2.44-2.33l.03-1.57z" fill="url(#at)"/><path d="m78.71 42.95 15.96 4.82a2.6 2.6 0 0 1 1.83 2.78c-.16 1.48-.42 3.15-.75 3-.58-.26-25.6-7.21-25.6-7.21l8.56-3.39z" fill="url(#au)"/><defs><linearGradient id="a" x1="-6.86" y1="522.72" x2="351.2" y2="78.9" gradientUnits="userSpaceOnUse"><stop stop-color="#B37CFF"/><stop offset="1" stop-color="#F895E7"/></linearGradient><linearGradient id="b" x1="472.52" y1="92.81" x2="314.65" y2="195.32" gradientUnits="userSpaceOnUse"><stop stop-color="#A737D5"/><stop offset="1" stop-color="#EF497A"/></linearGradient><linearGradient id="c" x1="445.8" y1="155.6" x2="307.96" y2="38.95" gradientUnits="userSpaceOnUse"><stop stop-color="#CE1567"/><stop offset="1" stop-color="#7A1DBC"/></linearGradient><linearGradient id="d" x1="445.25" y1="449.13" x2="67.64" y2="2.33" gradientUnits="userSpaceOnUse"><stop stop-color="#53D8FF"/><stop offset="1" stop-color="#3840F7"/></linearGradient><linearGradient id="e" x1="269.78" y1="56.31" x2="388.93" y2="718.74" gradientUnits="userSpaceOnUse"><stop stop-color="#53D8FF"/><stop offset="1" stop-color="#3840F7"/></linearGradient><linearGradient id="f" x1="253.76" y1="-63.02" x2="210.87" y2="304.71" gradientUnits="userSpaceOnUse"><stop stop-color="#53D8FF"/><stop offset="1" stop-color="#3840F7"/></linearGradient><linearGradient id="g" x1="161.56" y1="383.42" x2=".07" y2="-68.75" gradientUnits="userSpaceOnUse"><stop stop-color="#53D8FF"/><stop offset="1" stop-color="#3840F7"/></linearGradient><linearGradient id="h" x1="307.69" y1="120.44" x2="361.93" y2="295.22" gradientUnits="userSpaceOnUse"><stop stop-color="#CE1567"/><stop offset="1" stop-color="#7A1DBC"/></linearGradient><linearGradient id="i" x1="92.23" y1="122.34" x2="146.47" y2="297.11" gradientUnits="userSpaceOnUse"><stop stop-color="#CE1567"/><stop offset="1" stop-color="#7A1DBC"/></linearGradient><linearGradient id="j" x1="293.78" y1="60.54" x2="348.02" y2="235.31" gradientUnits="userSpaceOnUse"><stop stop-color="#CE1567"/><stop offset="1" stop-color="#7A1DBC"/></linearGradient><linearGradient id="k" x1="115.73" y1="256.57" x2="169.97" y2="431.34" gradientUnits="userSpaceOnUse"><stop stop-color="#CE1567"/><stop offset="1" stop-color="#7A1DBC"/></linearGradient><linearGradient id="l" x1="77.14" y1="192.36" x2="131.38" y2="367.13" gradientUnits="userSpaceOnUse"><stop stop-color="#CE1567"/><stop offset="1" stop-color="#7A1DBC"/></linearGradient><linearGradient id="m" x1="246.73" y1="205.52" x2="172.67" y2="240.46" gradientUnits="userSpaceOnUse"><stop stop-color="#C4421B"/><stop offset="1" stop-color="#5C0E16"/></linearGradient><linearGradient id="n" x1="240.59" y1="193.25" x2="166.85" y2="228.02" gradientUnits="userSpaceOnUse"><stop stop-color="#C4421B"/><stop offset="1" stop-color="#5C0E16"/></linearGradient><linearGradient id="o" x1="235.69" y1="225.57" x2="222.54" y2="195.92" gradientUnits="userSpaceOnUse"><stop stop-color="#A737D5"/><stop offset=".08" stop-color="#BA3CBD"/><stop offset=".19" stop-color="#CE41A4"/><stop offset=".32" stop-color="#DD4491"/><stop offset=".46" stop-color="#E74784"/><stop offset=".64" stop-color="#ED497C"/><stop offset="1" stop-color="#EF497A"/></linearGradient><linearGradient id="p" x1="256.59" y1="269.84" x2="164" y2="199.07" gradientUnits="userSpaceOnUse"><stop stop-color="#2B3582"/><stop offset="1" stop-color="#150E42"/></linearGradient><linearGradient id="q" x1="181.17" y1="225.67" x2="138.78" y2="270.42" gradientUnits="userSpaceOnUse"><stop stop-color="#C4421B"/><stop offset="1" stop-color="#5C0E16"/></linearGradient><linearGradient id="r" x1="213.78" y1="123.83" x2="344.65" y2="268.23" gradientUnits="userSpaceOnUse"><stop stop-color="#FDF53F"/><stop offset="1" stop-color="#D93C65"/></linearGradient><linearGradient id="s" x1="245.08" y1="174.99" x2="328.87" y2="324.99" gradientUnits="userSpaceOnUse"><stop stop-color="#FDF53F"/><stop offset="1" stop-color="#D93C65"/></linearGradient><linearGradient id="t" x1="365.98" y1="424.78" x2="207.57" y2="208.61" gradientUnits="userSpaceOnUse"><stop stop-color="#C4421B"/><stop offset="1" stop-color="#5C0E16"/></linearGradient><linearGradient id="u" x1="309.74" y1="371.65" x2="254.94" y2="224.33" gradientUnits="userSpaceOnUse"><stop stop-color="#7C27DD"/><stop offset="1" stop-color="#2B41D9"/></linearGradient><linearGradient id="v" x1="333.13" y1="391.16" x2="321.92" y2="351.77" gradientUnits="userSpaceOnUse"><stop stop-color="#2B3582"/><stop offset="1" stop-color="#150E42"/></linearGradient><linearGradient id="w" x1="237.59" y1="457.7" x2="260.5" y2="190.5" gradientUnits="userSpaceOnUse"><stop stop-color="#C4421B"/><stop offset="1" stop-color="#5C0E16"/></linearGradient><linearGradient id="x" x1="274.67" y1="384.69" x2="219.87" y2="237.38" gradientUnits="userSpaceOnUse"><stop stop-color="#7C27DD"/><stop offset="1" stop-color="#2B41D9"/></linearGradient><linearGradient id="y" x1="222.17" y1="357.36" x2="255.76" y2="415.68" gradientUnits="userSpaceOnUse"><stop stop-color="#2B3582"/><stop offset="1" stop-color="#150E42"/></linearGradient><linearGradient id="z" x1="285.83" y1="239.38" x2="217.25" y2="174.33" gradientUnits="userSpaceOnUse"><stop stop-color="#A737D5"/><stop offset="1" stop-color="#EF497A"/></linearGradient><linearGradient id="A" x1="231.68" y1="107.16" x2="237.04" y2="178.66" gradientUnits="userSpaceOnUse"><stop stop-color="#C4421B"/><stop offset="1" stop-color="#5C0E16"/></linearGradient><linearGradient id="B" x1="219.1" y1="129.22" x2="252.73" y2="159.31" gradientUnits="userSpaceOnUse"><stop stop-color="#C4421B"/><stop offset="1" stop-color="#5C0E16"/></linearGradient><linearGradient id="C" x1="252.54" y1="153.7" x2="231.6" y2="107.51" gradientUnits="userSpaceOnUse"><stop stop-color="#2B3582"/><stop offset="1" stop-color="#150E42"/></linearGradient><linearGradient id="D" x1="260.14" y1="118.15" x2="285.96" y2="198.38" gradientUnits="userSpaceOnUse"><stop stop-color="#2B3582"/><stop offset="1" stop-color="#150E42"/></linearGradient><linearGradient id="E" x1="290.74" y1="236.44" x2="241.57" y2="162.1" gradientUnits="userSpaceOnUse"><stop stop-color="#A737D5"/><stop offset="1" stop-color="#EF497A"/></linearGradient><linearGradient id="F" x1="280.29" y1="237.37" x2="264.12" y2="268.41" gradientUnits="userSpaceOnUse"><stop stop-color="#C4421B"/><stop offset="1" stop-color="#5C0E16"/></linearGradient><linearGradient id="G" x1="245.5" y1="170.95" x2="264.5" y2="237.57" gradientUnits="userSpaceOnUse"><stop stop-color="#FDF53F"/><stop offset="1" stop-color="#D93C65"/></linearGradient><linearGradient id="H" x1="318.82" y1="206.5" x2="344.09" y2="280.16" gradientUnits="userSpaceOnUse"><stop stop-color="#F9B776"/><stop offset="1" stop-color="#F47960"/></linearGradient><linearGradient id="I" x1="337.96" y1="175.53" x2="323.41" y2="278.54" gradientUnits="userSpaceOnUse"><stop stop-color="#FDF53F"/><stop offset="1" stop-color="#D93C65"/></linearGradient><linearGradient id="J" x1="294.52" y1="226.66" x2="371.94" y2="350.58" gradientUnits="userSpaceOnUse"><stop stop-color="#2B3582"/><stop offset="1" stop-color="#150E42"/></linearGradient><linearGradient id="K" x1="373.18" y1="221.64" x2="310.95" y2="278.6" gradientUnits="userSpaceOnUse"><stop stop-color="#F9B776"/><stop offset="1" stop-color="#F47960"/></linearGradient><linearGradient id="L" x1="347.21" y1="146.19" x2="408.29" y2="263.43" gradientUnits="userSpaceOnUse"><stop stop-color="#CB236D"/><stop offset="1" stop-color="#4C246D"/></linearGradient><linearGradient id="M" x1="402.28" y1="181.81" x2="325.05" y2="153.7" gradientUnits="userSpaceOnUse"><stop stop-color="#CB236D"/><stop offset="1" stop-color="#4C246D"/></linearGradient><linearGradient id="N" x1="379.9" y1="364.93" x2="322.44" y2="269.68" gradientUnits="userSpaceOnUse"><stop stop-color="#7C27DD"/><stop offset="1" stop-color="#2B41D9"/></linearGradient><linearGradient id="O" x1="387.26" y1="279.42" x2="418.61" y2="416.38" gradientUnits="userSpaceOnUse"><stop stop-color="#2B3582"/><stop offset="1" stop-color="#150E42"/></linearGradient><linearGradient id="P" x1="359.03" y1="366.48" x2="268.88" y2="456.45" gradientUnits="userSpaceOnUse"><stop stop-color="#2B3582"/><stop offset="1" stop-color="#150E42"/></linearGradient><linearGradient id="Q" x1="346.17" y1="153.13" x2="418.06" y2="369.78" gradientUnits="userSpaceOnUse"><stop stop-color="#FDF53F"/><stop offset="1" stop-color="#D93C65"/></linearGradient><linearGradient id="R" x1="401.08" y1="148.52" x2="361.72" y2="207.78" gradientUnits="userSpaceOnUse"><stop stop-color="#FDF53F"/><stop offset="1" stop-color="#D93C65"/></linearGradient><linearGradient id="S" x1="330.61" y1="178.98" x2="391.21" y2="263.51" gradientUnits="userSpaceOnUse"><stop stop-color="#F9B776"/><stop offset="1" stop-color="#F47960"/></linearGradient><linearGradient id="T" x1="349.15" y1="121.69" x2="355.01" y2="358.79" gradientUnits="userSpaceOnUse"><stop stop-color="#F9B776"/><stop offset="1" stop-color="#F47960"/></linearGradient><linearGradient id="U" x1="346.8" y1="120.65" x2="338.66" y2="168.45" gradientUnits="userSpaceOnUse"><stop stop-color="#F9B776"/><stop offset="1" stop-color="#F47960"/></linearGradient><linearGradient id="V" x1="354.7" y1="143.82" x2="334.81" y2="122.73" gradientUnits="userSpaceOnUse"><stop stop-color="#2B3582"/><stop offset="1" stop-color="#150E42"/></linearGradient><linearGradient id="W" x1="353.65" y1="172.18" x2="355.08" y2="139.19" gradientUnits="userSpaceOnUse"><stop stop-color="#F9B776"/><stop offset="1" stop-color="#F47960"/></linearGradient><linearGradient id="X" x1="393.39" y1="199.1" x2="311.72" y2="139.9" gradientUnits="userSpaceOnUse"><stop stop-color="#CB236D"/><stop offset="1" stop-color="#4C246D"/></linearGradient><linearGradient id="Y" x1="340.5" y1="112.63" x2="358.64" y2="111.85" gradientUnits="userSpaceOnUse"><stop stop-color="#FDF53F"/><stop offset="1" stop-color="#D93C65"/></linearGradient><linearGradient id="Z" x1="346.98" y1="105.17" x2="359.8" y2="144.25" gradientUnits="userSpaceOnUse"><stop stop-color="#FDF53F"/><stop offset="1" stop-color="#D93C65"/></linearGradient><linearGradient id="aa" x1="316.6" y1="112.68" x2="354.23" y2="129.45" gradientUnits="userSpaceOnUse"><stop stop-color="#FDF53F"/><stop offset="1" stop-color="#D93C65"/></linearGradient><linearGradient id="ab" x1="162.22" y1="19.51" x2="153.7" y2="99.39" gradientUnits="userSpaceOnUse"><stop stop-color="#FDF53F"/><stop offset="1" stop-color="#D93C65"/></linearGradient><linearGradient id="ac" x1="229.26" y1="98.38" x2="13.51" y2="-9.29" gradientUnits="userSpaceOnUse"><stop stop-color="#FDF53F"/><stop offset="1" stop-color="#D93C65"/></linearGradient><linearGradient id="ad" x1="233.91" y1="76.92" x2="257.28" y2="-29" gradientUnits="userSpaceOnUse"><stop stop-color="#FDF53F"/><stop offset="1" stop-color="#D93C65"/></linearGradient><linearGradient id="ae" x1="222.55" y1="21.47" x2="281.59" y2="172.98" gradientUnits="userSpaceOnUse"><stop stop-color="#FDF53F"/><stop offset="1" stop-color="#D93C65"/></linearGradient><linearGradient id="af" x1="134.41" y1="72.69" x2="180.37" y2="120.86" gradientUnits="userSpaceOnUse"><stop stop-color="#FDF53F"/><stop offset="1" stop-color="#D93C65"/></linearGradient><linearGradient id="ag" x1="188.38" y1="125.56" x2="93.53" y2="-69.48" gradientUnits="userSpaceOnUse"><stop stop-color="#FDF53F"/><stop offset="1" stop-color="#D93C65"/></linearGradient><linearGradient id="ah" x1="185.16" y1="117.65" x2="123.22" y2="79.52" gradientUnits="userSpaceOnUse"><stop stop-color="#FDF53F"/><stop offset="1" stop-color="#D93C65"/></linearGradient><linearGradient id="ai" x1="263.48" y1="51.79" x2="198.98" y2="117.17" gradientUnits="userSpaceOnUse"><stop stop-color="#FDF53F"/><stop offset="1" stop-color="#D93C65"/></linearGradient><linearGradient id="aj" x1="70.25" y1="12.69" x2="124.39" y2="37.11" gradientUnits="userSpaceOnUse"><stop stop-color="#2C759E"/><stop offset="1" stop-color="#051042"/></linearGradient><linearGradient id="ak" x1="69.3" y1="15.49" x2="123.43" y2="39.9" gradientUnits="userSpaceOnUse"><stop stop-color="#2C759E"/><stop offset="1" stop-color="#051042"/></linearGradient><linearGradient id="al" x1="68.36" y1="16.87" x2="122.5" y2="41.28" gradientUnits="userSpaceOnUse"><stop stop-color="#2C759E"/><stop offset="1" stop-color="#051042"/></linearGradient><linearGradient id="am" x1="68.12" y1="18.98" x2="122.26" y2="43.39" gradientUnits="userSpaceOnUse"><stop stop-color="#2C759E"/><stop offset="1" stop-color="#051042"/></linearGradient><linearGradient id="an" x1="66.47" y1="21.05" x2="120.61" y2="45.46" gradientUnits="userSpaceOnUse"><stop stop-color="#2C759E"/><stop offset="1" stop-color="#051042"/></linearGradient><linearGradient id="ao" x1="65.53" y1="23.14" x2="119.66" y2="47.55" gradientUnits="userSpaceOnUse"><stop stop-color="#2C759E"/><stop offset="1" stop-color="#051042"/></linearGradient><linearGradient id="ap" x1="64.6" y1="24.53" x2="118.73" y2="48.94" gradientUnits="userSpaceOnUse"><stop stop-color="#2C759E"/><stop offset="1" stop-color="#051042"/></linearGradient><linearGradient id="aq" x1="64.34" y1="27.34" x2="118.47" y2="51.75" gradientUnits="userSpaceOnUse"><stop stop-color="#2C759E"/><stop offset="1" stop-color="#051042"/></linearGradient><linearGradient id="ar" x1="63.39" y1="29.43" x2="117.53" y2="53.84" gradientUnits="userSpaceOnUse"><stop stop-color="#2C759E"/><stop offset="1" stop-color="#051042"/></linearGradient><linearGradient id="as" x1="62.46" y1="30.81" x2="116.6" y2="55.23" gradientUnits="userSpaceOnUse"><stop stop-color="#2C759E"/><stop offset="1" stop-color="#051042"/></linearGradient><linearGradient id="at" x1="62.2" y1="33.63" x2="116.34" y2="58.04" gradientUnits="userSpaceOnUse"><stop stop-color="#2C759E"/><stop offset="1" stop-color="#051042"/></linearGradient><linearGradient id="au" x1="59.67" y1="36.75" x2="114.58" y2="61.51" gradientUnits="userSpaceOnUse"><stop stop-color="#2C759E"/><stop offset="1" stop-color="#051042"/></linearGradient></defs></svg>
