<svg width="570" height="531" fill="none" xmlns="http://www.w3.org/2000/svg"><path d="M569.74 227.28c-8.37 30.21-17.35 60.26-24.91 90.67-6.64 26.7-20.53 48.85-39.27 68.21-21.33 22.05-43.43 43.36-64.69 65.49-3.34 3.48-5.42 9.5-5.61 14.44-.67 17.16-.48 34.38-.14 51.57.18 8.7-3 12.8-12.07 12.76-40.51-.17-81.04-.1-121.56-.05-6.85 0-12.56-1.38-12.24-9.88 1.36-36.34 2.17-72.71 4.47-108.99 1.93-30.56 19.94-52.61 45.62-65.61 40.5-20.49 73.94-49.2 106.22-80.11 12.82-12.27 27.65-19.12 45.93-8.21 7.21-16.97 14.62-32.8 20.68-49.14 5.64-15.19 15.95-24.12 31.7-24.52 15.13-.37 21.1 11.56 25.87 23.72v19.65zM306.96 455.76c34.1 0 65.97.1 97.84-.16 2.86-.03 6.4-1.66 8.46-3.72 29.73-29.84 60.02-59.2 88.44-90.26 9.83-10.76 16.95-25.18 21.7-39.16 9.81-28.93 17.37-58.64 25.46-88.14 1.6-5.83 2.4-12.27 1.68-18.2-.57-4.6-4.1-8.83-6.31-13.23-4.43 3.04-10.6 5.1-12.94 9.3-5.33 9.55-8.65 20.2-13.04 30.31-8.45 19.45-13.96 41.13-26.3 57.7-20.69 27.8-45.55 52.5-69.36 77.85-2.34 2.5-9.55.41-14.5.45 1.28-5.09 1.04-11.5 4.1-15.06 19.46-22.67 39.67-44.68 59.57-66.97 5.94-6.65 14.94-14.87 6.85-22.92-7.59-7.55-15.9 1.41-21.8 7.15-32.07 31.15-65.27 60.3-106.2 80.1-18.46 8.92-33.64 23.86-37.35 46.02-2.62 15.65-4.1 31.48-6.3 48.94zm.83 19.69v36.14h108.6v-36.14h-108.6zM.03 207.66c4.93-12.59 11.3-24.59 26.95-23.7 15.75.88 25.48 10.6 31 25.5 5.9 15.96 12.94 31.5 19.86 48.1 20.06-11.53 34.87-2.39 48.58 10.66 30.17 28.71 60.79 56.32 98.88 75.04 32.18 15.83 50.3 43.18 51.38 80.3.9 31.05 1.63 62.1 2.86 93.14.4 10.14-3.6 13.8-13.56 13.72-39.54-.3-79.07-.25-118.6-.03-9.08.05-13.58-2.9-13.33-12.73a802.6 802.6 0 0 0-.1-51.56c-.2-4.94-2.25-10.94-5.56-14.46-25.14-26.77-52.04-51.99-75.78-79.92-11.49-13.5-19.58-31.07-25.3-48.12C16.68 292.02 8.95 259.46.02 227.31v-19.65zM261.19 455.7c-1.04-11.84-2.24-21.57-2.68-31.34-1.38-30.28-16.35-52.57-42.69-65.13-39.8-18.97-71.43-47.93-102.68-77.86-6.2-5.94-14.35-15.77-22.53-7.62-7.95 7.94 1.26 16.24 7.14 22.86a22843.5 22843.5 0 0 0 60.31 67.6c4.57 5.1 7.33 11.43.71 15.45-3.04 1.84-10.9-.38-14.06-3.4-10.27-9.86-19.76-20.63-28.87-31.61-18.83-22.72-42.38-41.77-52.17-71.5-6.1-18.52-14.64-36.22-22.19-54.26-1.56-3.73-2.84-8-5.54-10.73-2.59-2.62-7.2-5.32-10.29-4.7-2.63.52-6.04 5.63-6.15 8.8-.27 8.04.06 16.4 2.06 24.13 6.61 25.64 14.42 50.96 21.08 76.58 5.26 20.19 14.02 38.36 28.52 53.27 27.86 28.65 56.08 56.95 84.26 85.29 1.87 1.88 4.68 3.97 7.08 4 32.48.26 64.97.17 98.7.17zm-108.1 19.76v35.73h107.85v-35.73H153.09zM161.96 122c21.02-4.08 24.4-2.97 27.18 8.23 26.67-3.89 17.6-25.29 19.7-42.11h26.22l1.05 14.72c7.3-4.62 14.24-8.1 19.95-13 2.79-2.4 4.5-7.46 4.6-11.37.49-17.66.19-35.35.23-53.03.04-17.85 7.23-25.5 23.8-25.44 15.96.07 22.95 7.54 23 24.74.05 15.62.9 31.32-.28 46.85-.9 11.97 2.78 19.5 13.81 23.93 3.7 1.49 6.95 4.13 11.65 7l1.65-14.43h25.95c3.46 15.07-8.09 38.1 19.91 42.27l1.67-9.17h24.5c.5 1.1 1.54 2.23 1.4 3.2-2.34 16.82 1.73 29.76 18.22 38.35 4.65 2.42 7.83 11.52 8.09 17.71.47 11.35-1.73 22.82-3.04 36.5L307.79 162.9c0 22.47-.31 43.54.36 64.58.1 2.94 4.7 6.16 7.79 8.5 18.33 13.92 23.66 23.62 24.4 46.18-15.12-.13-29.85 3.72-43.9-8.55-5.18-4.52-20.74-4.1-26.5.47-13.1 10.4-26.46 8.43-41.4 8.13-.5-19.59 9-33.3 23.28-43.8 7.18-5.29 9.52-11.04 9.24-19.64-.6-17.97-.18-35.98-.18-55.69L139.4 216.98c-1.6-14.33-4.36-27.3-3.9-40.15.2-5.75 5.55-13.5 10.76-16.47 12.9-7.34 17.26-17.26 15.07-31.25-.36-2.31.4-4.8.63-7.1z" fill="#201429"/></svg>
