<svg width="103" height="40" fill="none" xmlns="http://www.w3.org/2000/svg"><path d="M.9 10.48c0-.88.49-1.32 1.33-1.32h14.28c.89 0 1.33.44 1.33 1.32v1.1c0 .89-.44 1.37-1.33 1.37H4.95v9.47h9.11c.9 0 1.34.44 1.34 1.32v1.1c0 .88-.45 1.37-1.34 1.37H4.96v10h11.56c.9 0 1.33.48 1.33 1.36v1.1c0 .89-.44 1.33-1.33 1.33H2.24C1.39 40 .9 39.56.9 38.68v-28.2zm25.26-1.32h1.33c.9 0 1.38.44 1.38 1.32v13.66l10.4-14.06c.4-.57.85-.92 1.74-.92h1.9c.86 0 1.12 1.01.68 1.58l-8.8 11.28 9.02 16.44c.35.66.04 1.54-.85 1.54h-1.73c-.94 0-1.38-.26-1.78-1.06L32.2 25.37l-3.33 4.32v8.99c0 .88-.5 1.32-1.38 1.32h-1.33c-.85 0-1.34-.44-1.34-1.32v-28.2c0-.88.5-1.32 1.34-1.32zm28.5 3.78h-5.79c-.89 0-1.33-.48-1.33-1.36v-1.1c0-.88.44-1.32 1.33-1.32h15.65c.9 0 1.34.44 1.34 1.32v1.1c0 .89-.45 1.37-1.34 1.37H58.7v25.73c0 .88-.45 1.32-1.34 1.32h-1.33c-.9 0-1.38-.44-1.38-1.32V12.95zm16.44 5.2c0-6.3 4-9.47 9.34-9.47 5.33 0 9.33 3.18 9.33 9.48v20.53c0 .88-.44 1.32-1.33 1.32h-1.33c-.9 0-1.34-.44-1.34-1.32V29.6H75.1v9.08c0 .88-.44 1.32-1.33 1.32h-1.33c-.9 0-1.34-.44-1.34-1.32V18.15zm4 7.67h10.67v-7.27c0-4.54-2.4-6.08-5.33-6.08-2.94 0-5.34 1.54-5.34 6.08v7.27zM97.18 0a5.62 5.62 0 0 0-3.11.96A5.6 5.6 0 0 0 91.6 5.9a5.6 5.6 0 0 0 2.28 4.21 5.62 5.62 0 0 0 5.48.66 5.6 5.6 0 0 0 3.46-5.17 5.62 5.62 0 0 0-3.5-5.18A5.65 5.65 0 0 0 97.18 0zm0 8.93a3.34 3.34 0 0 1-3.07-2.07 3.32 3.32 0 0 1 1.97-4.4 3.34 3.34 0 0 1 3.9 1.3c.36.54.55 1.18.55 1.84a3.34 3.34 0 0 1-2.07 3.08 3.34 3.34 0 0 1-1.28.25z" fill="#fff"/></svg>
