<svg width="102" height="100" fill="none" xmlns="http://www.w3.org/2000/svg"><circle cx="48" cy="52" r="48" fill="url(#a)" fill-opacity=".5"/><path d="M37.31 60.42c0-3.96 2.21-6.42 6.17-6.42H70.1c3.96 0 6.16 2.46 6.16 6.42v6.15A5.5 5.5 0 0 1 74.5 71c-1.34 1.34-2.5 1.74-4.4 1.74H43.49c-1.9 0-3.14-.4-4.48-1.74-1.34-1.34-1.69-2.53-1.69-4.43v-6.15ZM43.48 59c-.27 0-.79.3-.98.5-.2.2-.5.65-.5.92v6.08c0 .57.93 1.5 1.5 1.5h26.6c.28 0 .7-.3.9-.5.2-.2.5-.66.5-.93v-6.15c0-.27-.3-.73-.5-.92-.2-.2-.73-.5-1-.5H43.48ZM79.32 0a22.53 22.53 0 1 1 0 45.06 22.53 22.53 0 0 1 0-45.06ZM69.18 12.39a2.05 2.05 0 0 0 0 2.9l7.25 7.24-7.24 7.24a2.05 2.05 0 0 0 2.9 2.9l7.23-7.24 7.25 7.25a2.05 2.05 0 1 0 2.9-2.9l-7.25-7.25 7.26-7.25a2.05 2.05 0 0 0-2.9-2.9l-7.26 7.26-7.25-7.25a2.05 2.05 0 0 0-2.9 0Z" fill="#39235A"/><path d="M84 48.84c2.11-.32 2.53-.52 4.5-1.34V77c0 2.34-.4 3.8-2 5.5-1.6 1.7-3.17 2.34-5.5 2.5H33.22c-2.33 0-3.51-.4-5.22-2-1.7-1.6-2.84-3.17-3-5.5V13.29c0-2.33-.1-3.58 1.5-5.29 1.6-1.7 3.17-2.84 5.5-3h27c-1.76 1.83-2.32 2.25-3.5 4.5H33c-.74 0-1.94.51-2.5 1a3.3 3.3 0 0 0-1 2v64.28c0 1.56 1.5 3.52 3 3.72h48c.74 0 1.44-.51 2-1s1.4-1.26 1.5-2V48.84Z" fill="#39235A"/><defs><linearGradient id="a" x1="81.5" y1="11.5" x2="14.5" y2="94" gradientUnits="userSpaceOnUse"><stop stop-color="#F89FF2"/><stop offset="1" stop-color="#D89FFC"/></linearGradient></defs></svg>
